<svg width="241" height="226" viewBox="0 0 241 226" fill="none" xmlns="http://www.w3.org/2000/svg">
<path d="M188 146.562C195.702 146.562 201.084 142.905 204.231 139.478C206.074 137.451 209.221 137.304 211.25 139.185C213.258 141.066 213.382 144.243 211.519 146.27C206.985 151.265 199.118 156.594 188 156.594C176.882 156.594 169.015 151.265 164.481 146.27C162.618 144.243 162.556 141.066 164.75 139.185C166.779 137.304 169.926 137.451 171.769 139.478C174.916 142.905 180.298 146.562 188 146.562ZM180.05 120.816L180.009 120.753C179.967 120.711 179.926 120.648 179.864 120.565C179.719 120.398 179.532 120.168 179.284 119.875C178.766 119.269 178.042 118.496 177.172 117.535C175.35 116.093 173.259 114.797 171.438 114.797C169.616 114.797 167.525 116.093 165.703 117.535C164.833 118.496 164.109 119.269 163.591 119.875C163.343 120.168 162.97 120.398 163.011 120.565C162.763 120.648 162.908 120.711 162.866 120.753L162.825 120.816C162.39 121.401 161.645 121.631 160.982 121.401C160.299 121.171 159.844 120.523 159.844 119.812C159.844 116.072 161.231 112.373 163.28 109.614C165.309 106.897 168.229 104.766 171.438 104.766C174.646 104.766 177.566 106.897 179.595 109.614C181.644 112.373 183.031 116.072 183.031 119.812C183.031 120.523 182.576 121.171 181.893 121.401C181.23 121.631 180.485 121.401 180.05 120.816V120.816ZM213.175 120.816L213.134 120.753C213.092 120.711 213.051 120.648 212.989 120.565C212.844 120.398 212.657 120.168 212.409 119.875C211.891 119.269 211.167 118.496 210.297 117.535C208.475 116.093 206.384 114.797 204.562 114.797C202.741 114.797 200.65 116.093 198.828 117.535C197.958 118.496 197.234 119.269 196.716 119.875C196.468 120.168 196.095 120.398 196.136 120.565C195.888 120.648 196.033 120.711 195.991 120.753L195.95 120.816C195.515 121.401 194.77 121.631 194.107 121.401C193.424 121.171 192.969 120.523 192.969 119.812C192.969 116.072 194.356 112.373 196.405 109.614C198.434 106.897 201.354 104.766 204.562 104.766C207.771 104.766 210.691 106.897 212.72 109.614C214.769 112.373 216.156 116.072 216.156 119.812C216.156 120.523 215.701 121.171 215.018 121.401C214.355 121.631 213.61 121.401 213.175 120.816V120.816ZM241 126.5C241 156.05 217.274 180 188 180C158.726 180 135 156.05 135 126.5C135 96.9496 158.726 73 188 73C217.274 73 241 96.9496 241 126.5ZM188 83.0312C164.212 83.0312 144.938 102.488 144.938 126.5C144.938 150.512 164.212 169.969 188 169.969C211.788 169.969 231.062 150.512 231.062 126.5C231.062 102.488 211.788 83.0312 188 83.0312Z" fill="#0FA958"/>
<path d="M76 132.5C93.4927 132.5 109.326 125.08 120.789 113.089C132.24 101.111 139.333 84.5483 139.333 66.25C139.333 47.9517 132.24 31.3893 120.789 19.4113C109.326 7.42 93.4927 0 76 0C58.5073 0 42.674 7.42 31.2107 19.4113C19.76 31.3893 12.6667 47.9517 12.6667 66.25C12.6667 84.5483 19.76 101.111 31.2107 113.089C37.0856 119.251 44.0669 124.139 51.7534 127.47C59.4399 130.801 67.6799 132.511 76 132.5ZM76 225.25C120.561 225.25 152 212 152 198.75C152 172.25 122.183 145.75 76 145.75C28.5 145.75 0 172.25 0 198.75C0 212 28.5 225.25 76 225.25Z" fill="black"/>
</svg>
