<svg width="234" height="226" viewBox="0 0 234 226" fill="none" xmlns="http://www.w3.org/2000/svg">
<path d="M193 128.375C198.958 128.375 203.122 125.572 205.556 122.946C206.982 121.392 209.416 121.28 210.986 122.721C212.539 124.163 212.635 126.597 211.194 128.151C207.686 131.979 201.6 136.062 193 136.062C184.4 136.062 178.314 131.979 174.806 128.151C173.365 126.597 173.317 124.163 175.014 122.721C176.584 121.28 179.018 121.392 180.444 122.946C182.878 125.572 187.042 128.375 193 128.375ZM186.85 108.644L186.818 108.596C186.786 108.564 186.754 108.516 186.706 108.452C186.594 108.323 186.45 108.147 186.257 107.923C185.857 107.459 185.296 106.866 184.624 106.129C183.214 105.024 181.597 104.031 180.188 104.031C178.778 104.031 177.161 105.024 175.751 106.129C175.079 106.866 174.518 107.459 174.118 107.923C173.925 108.147 173.637 108.323 173.669 108.452C173.477 108.516 173.589 108.564 173.557 108.596L173.525 108.644C173.189 109.092 172.612 109.268 172.1 109.092C171.571 108.916 171.219 108.42 171.219 107.875C171.219 105.008 172.292 102.173 173.877 100.059C175.447 97.9773 177.705 96.3438 180.188 96.3438C182.67 96.3438 184.928 97.9773 186.498 100.059C188.083 102.173 189.156 105.008 189.156 107.875C189.156 108.42 188.804 108.916 188.275 109.092C187.763 109.268 187.186 109.092 186.85 108.644V108.644ZM212.475 108.644L212.443 108.596C212.411 108.564 212.379 108.516 212.331 108.452C212.219 108.323 212.075 108.147 211.882 107.923C211.482 107.459 210.921 106.866 210.249 106.129C208.839 105.024 207.222 104.031 205.812 104.031C204.403 104.031 202.786 105.024 201.376 106.129C200.704 106.866 200.143 107.459 199.743 107.923C199.55 108.147 199.262 108.323 199.294 108.452C199.102 108.516 199.214 108.564 199.182 108.596L199.15 108.644C198.814 109.092 198.237 109.268 197.725 109.092C197.196 108.916 196.844 108.42 196.844 107.875C196.844 105.008 197.917 102.173 199.502 100.059C201.072 97.9773 203.33 96.3438 205.812 96.3438C208.295 96.3438 210.553 97.9773 212.123 100.059C213.708 102.173 214.781 105.008 214.781 107.875C214.781 108.42 214.429 108.916 213.9 109.092C213.388 109.268 212.811 109.092 212.475 108.644V108.644ZM234 113C234 135.646 215.646 154 193 154C170.354 154 152 135.646 152 113C152 90.3539 170.354 72 193 72C215.646 72 234 90.3539 234 113ZM193 79.6875C174.598 79.6875 159.688 94.598 159.688 113C159.688 131.402 174.598 146.312 193 146.312C211.402 146.312 226.312 131.402 226.312 113C226.312 94.598 211.402 79.6875 193 79.6875Z" fill="#0FA958"/>
<path d="M76 132.5C93.4927 132.5 109.326 125.08 120.789 113.089C132.24 101.111 139.333 84.5483 139.333 66.25C139.333 47.9517 132.24 31.3893 120.789 19.4113C109.326 7.42 93.4927 0 76 0C58.5073 0 42.674 7.42 31.2107 19.4113C19.76 31.3893 12.6667 47.9517 12.6667 66.25C12.6667 84.5483 19.76 101.111 31.2107 113.089C37.0856 119.251 44.0669 124.139 51.7534 127.47C59.4399 130.801 67.6799 132.511 76 132.5ZM76 225.25C120.561 225.25 152 212 152 198.75C152 172.25 122.183 145.75 76 145.75C28.5 145.75 0 172.25 0 198.75C0 212 28.5 225.25 76 225.25Z" fill="black"/>
</svg>
