<svg width="12" height="14" viewBox="0 0 12 14" fill="none" xmlns="http://www.w3.org/2000/svg">
<path d="M12 11.0002H10V9.00017H9V11.0002H7V12.0002H9V14.0002H10V12.0002H12V11.0002Z" fill="black"/>
<path d="M5 13.0002H1V1.00017H5V4.00017C5.00079 4.26514 5.1064 4.51904 5.29377 4.7064C5.48113 4.89377 5.73503 4.99938 6 5.00017H9V7.00017H10V4.00017C10.0018 3.93446 9.98927 3.86914 9.96338 3.80872C9.93748 3.7483 9.8988 3.69421 9.85 3.65017L6.35 0.15017C6.30598 0.101342 6.25189 0.0626452 6.19147 0.0367486C6.13104 0.0108519 6.06572 -0.00162791 6 0.00017002H1C0.735027 0.000961384 0.481133 0.106572 0.293767 0.293937C0.106402 0.481303 0.000791363 0.735197 0 1.00017V13.0002C0.000791363 13.2651 0.106402 13.519 0.293767 13.7064C0.481133 13.8938 0.735027 13.9994 1 14.0002H5V13.0002ZM6 1.20017L8.8 4.00017H6V1.20017Z" fill="black"/>
</svg>
