<svg width="28" height="32" viewBox="0 0 28 32" fill="none" xmlns="http://www.w3.org/2000/svg">
<path d="M19.8465 20.8391C20.6973 20.3566 21.6711 20.082 22.7082 20.082H22.7117C22.8172 20.082 22.8664 19.9484 22.7891 19.8742C21.7105 18.8525 20.4785 18.0273 19.1434 17.4324C19.1293 17.425 19.1153 17.4213 19.1012 17.4139C21.2844 15.7402 22.7047 13.0201 22.7047 9.95117C22.7047 4.86719 18.8094 0.748047 14.0035 0.748047C9.19768 0.748047 5.30589 4.86719 5.30589 9.95117C5.30589 13.0201 6.7262 15.7402 8.91292 17.4139C8.89885 17.4213 8.88479 17.425 8.87073 17.4324C7.29924 18.1338 5.88948 19.1395 4.67659 20.4234C3.4707 21.694 2.51066 23.2002 1.85003 24.858C1.20003 26.4814 0.849239 28.2207 0.816433 29.9828C0.815495 30.0224 0.822076 30.0618 0.83579 30.0987C0.849503 30.1356 0.870071 30.1692 0.896281 30.1975C0.922492 30.2259 0.953815 30.2484 0.988404 30.2638C1.02299 30.2792 1.06015 30.2871 1.09768 30.2871H3.20354C3.35471 30.2871 3.48128 30.1572 3.48479 29.9977C3.5551 27.1328 4.64143 24.4498 6.56448 22.4162C8.55081 20.3121 11.1946 19.1543 14.0071 19.1543C16.0004 19.1543 17.9129 19.7369 19.5617 20.8279C19.6041 20.856 19.6527 20.8718 19.7027 20.8738C19.7527 20.8758 19.8023 20.8638 19.8465 20.8391ZM14.0071 16.334C12.3969 16.334 10.8817 15.6697 9.73909 14.4637C9.17692 13.8718 8.73125 13.1684 8.42776 12.3939C8.12426 11.6195 7.96894 10.7893 7.97073 9.95117C7.97073 8.24785 8.60002 6.64473 9.73909 5.43867C10.8781 4.23262 12.3934 3.56836 14.0071 3.56836C15.6207 3.56836 17.1324 4.23262 18.275 5.43867C18.8372 6.03053 19.2829 6.73395 19.5864 7.50842C19.8898 8.28288 20.0452 9.11307 20.0434 9.95117C20.0434 11.6545 19.4141 13.2576 18.275 14.4637C17.1324 15.6697 15.6172 16.334 14.0071 16.334ZM26.9375 25.166H23.9844V22.0488C23.9844 21.8855 23.8578 21.752 23.7031 21.752H21.7344C21.5797 21.752 21.4531 21.8855 21.4531 22.0488V25.166H18.5C18.3453 25.166 18.2188 25.2996 18.2188 25.4629V27.541C18.2188 27.7043 18.3453 27.8379 18.5 27.8379H21.4531V30.9551C21.4531 31.1184 21.5797 31.252 21.7344 31.252H23.7031C23.8578 31.252 23.9844 31.1184 23.9844 30.9551V27.8379H26.9375C27.0922 27.8379 27.2188 27.7043 27.2188 27.541V25.4629C27.2188 25.2996 27.0922 25.166 26.9375 25.166Z" fill="black"/>
</svg>
