<svg width="241" height="226" viewBox="0 0 241 226" fill="none" xmlns="http://www.w3.org/2000/svg">
<path d="M76 132.5C93.4927 132.5 109.326 125.08 120.789 113.089C132.24 101.111 139.333 84.5483 139.333 66.25C139.333 47.9517 132.24 31.3893 120.789 19.4113C109.326 7.42 93.4927 0 76 0C58.5073 0 42.674 7.42 31.2107 19.4113C19.76 31.3893 12.6667 47.9517 12.6667 66.25C12.6667 84.5483 19.76 101.111 31.2107 113.089C37.0856 119.251 44.0669 124.139 51.7534 127.47C59.4399 130.801 67.6799 132.511 76 132.5V132.5ZM76 225.25C120.561 225.25 152 212 152 198.75C152 172.25 122.183 145.75 76 145.75C28.5 145.75 0 172.25 0 198.75C0 212 28.5 225.25 76 225.25ZM228 106H202.667V79.5C202.667 75.9859 201.332 72.6157 198.957 70.1308C196.581 67.646 193.359 66.25 190 66.25C186.641 66.25 183.419 67.646 181.043 70.1308C178.668 72.6157 177.333 75.9859 177.333 79.5V106H152C148.641 106 145.419 107.396 143.043 109.881C140.668 112.366 139.333 115.736 139.333 119.25C139.333 122.764 140.668 126.134 143.043 128.619C145.419 131.104 148.641 132.5 152 132.5H177.333V159C177.333 162.514 178.668 165.884 181.043 168.369C183.419 170.854 186.641 172.25 190 172.25C193.359 172.25 196.581 170.854 198.957 168.369C201.332 165.884 202.667 162.514 202.667 159V132.5H228C231.359 132.5 234.581 131.104 236.957 128.619C239.332 126.134 240.667 122.764 240.667 119.25C240.667 115.736 239.332 112.366 236.957 109.881C234.581 107.396 231.359 106 228 106Z" fill="black"/>
</svg>
