<svg width="23" height="23" viewBox="0 0 23 23" fill="none" xmlns="http://www.w3.org/2000/svg">
<path d="M16.1231 7.33789H14.9323C14.6733 7.33789 14.427 7.4623 14.2747 7.67559L10.2833 13.2107L8.47547 10.7021C8.32312 10.4914 8.07937 10.3645 7.81785 10.3645H6.62703C6.46199 10.3645 6.36551 10.5523 6.46199 10.6869L9.62566 15.0744C9.7004 15.1787 9.79892 15.2637 9.91307 15.3224C10.0272 15.381 10.1537 15.4116 10.282 15.4116C10.4103 15.4116 10.5368 15.381 10.651 15.3224C10.7651 15.2637 10.8636 15.1787 10.9384 15.0744L16.2856 7.66035C16.3846 7.52578 16.2882 7.33789 16.1231 7.33789Z" fill="#0FA958"/>
<path d="M11.375 0C5.09336 0 0 5.09336 0 11.375C0 17.6566 5.09336 22.75 11.375 22.75C17.6566 22.75 22.75 17.6566 22.75 11.375C22.75 5.09336 17.6566 0 11.375 0ZM11.375 20.8203C6.15977 20.8203 1.92969 16.5902 1.92969 11.375C1.92969 6.15977 6.15977 1.92969 11.375 1.92969C16.5902 1.92969 20.8203 6.15977 20.8203 11.375C20.8203 16.5902 16.5902 20.8203 11.375 20.8203Z" fill="#0FA958"/>
</svg>
