<svg width="16" height="15" viewBox="0 0 16 15" fill="none" xmlns="http://www.w3.org/2000/svg">
<path d="M8 0.0208282C8.74347 0.0208056 9.45804 0.260793 9.99373 0.690416C10.5294 1.12004 10.8446 1.70589 10.873 2.32499L10.875 2.41666H14.5C14.6599 2.41709 14.8134 2.46855 14.9292 2.56046C15.0449 2.65237 15.114 2.77774 15.1222 2.91079C15.1304 3.04383 15.0771 3.17443 14.9732 3.27574C14.8694 3.37704 14.723 3.44134 14.564 3.45541L14.5 3.45833H13.9545L13.103 12.8625C13.0627 13.3078 12.8219 13.724 12.4289 14.0276C12.036 14.3313 11.5199 14.5 10.984 14.5H5.016C4.48011 14.5 3.964 14.3313 3.57105 14.0276C3.17811 13.724 2.93735 13.3078 2.897 12.8625L2.045 3.45833H1.5C1.34527 3.45839 1.19602 3.41061 1.08112 3.32426C0.966218 3.2379 0.893844 3.11909 0.878 2.99083L0.875 2.93749C0.875 2.66791 1.121 2.44583 1.436 2.41958L1.5 2.41666H5.125C5.125 1.78125 5.4279 1.17186 5.96707 0.722552C6.50623 0.273246 7.2375 0.0208282 8 0.0208282ZM12.701 3.45833H3.299L4.144 12.7842C4.16064 12.9674 4.25971 13.1387 4.42139 13.2637C4.58308 13.3887 4.79545 13.4582 5.016 13.4583H10.984C11.2046 13.4583 11.4171 13.3889 11.5789 13.2639C11.7407 13.1388 11.8399 12.9675 11.8565 12.7842L12.7015 3.45833H12.701ZM9.625 5.64583C9.9485 5.64583 10.215 5.85083 10.247 6.11333L10.25 6.16666V10.75C10.2507 10.8839 10.1896 11.0129 10.0791 11.1103C9.96871 11.2076 9.81755 11.2657 9.65704 11.2726C9.49654 11.2794 9.33903 11.2345 9.21723 11.1471C9.09543 11.0597 9.01871 10.9366 9.003 10.8033L9 10.75V6.16666C9 5.87916 9.28 5.64583 9.625 5.64583ZM6.375 5.64583C6.6985 5.64583 6.965 5.85083 6.997 6.11333L7 6.16666V10.75C7.00075 10.8839 6.93955 11.0129 6.82913 11.1103C6.71871 11.2076 6.56755 11.2657 6.40704 11.2726C6.24654 11.2794 6.08903 11.2345 5.96723 11.1471C5.84543 11.0597 5.76871 10.9366 5.753 10.8033L5.75 10.75V6.16666C5.75 5.87916 6.03 5.64583 6.375 5.64583ZM8 1.06249C7.58493 1.06247 7.18559 1.19481 6.88388 1.43236C6.58218 1.66991 6.401 1.99466 6.3775 2.33999L6.375 2.41666H9.625C9.625 2.05751 9.45379 1.71308 9.14905 1.45912C8.8443 1.20517 8.43098 1.06249 8 1.06249Z" fill="black"/>
</svg>
