<svg width="24" height="24" viewBox="0 0 24 24" fill="none" xmlns="http://www.w3.org/2000/svg">
<path d="M22.4833 5.39833L18.6017 1.51666C18.0951 1.0408 17.4312 0.767755 16.7364 0.749471C16.0416 0.731186 15.3643 0.968937 14.8333 1.4175L2.08333 14.1675C1.62542 14.6293 1.3403 15.2345 1.27583 15.8817L0.666667 21.7892C0.647583 21.9967 0.674508 22.2058 0.745521 22.4017C0.816534 22.5976 0.929887 22.7754 1.0775 22.9225C1.20987 23.0538 1.36686 23.1577 1.53947 23.2282C1.71207 23.2987 1.89689 23.3344 2.08333 23.3333H2.21083L8.11833 22.795C8.76546 22.7305 9.37072 22.4454 9.8325 21.9875L22.5825 9.2375C23.0774 8.7147 23.3448 8.01705 23.3262 7.29742C23.3076 6.57779 23.0045 5.89488 22.4833 5.39833ZM7.86333 19.9617L3.61333 20.3583L3.99583 16.1083L12 8.20333L15.825 12.0283L7.86333 19.9617ZM17.6667 10.13L13.87 6.33333L16.6325 3.5L20.5 7.3675L17.6667 10.13Z" fill="black"/>
</svg>
