<svg width="31" height="32" viewBox="0 0 31 32" fill="none" xmlns="http://www.w3.org/2000/svg">
<path d="M24.9292 22.5333C25.6783 21.1867 26.1563 19.56 25.5879 17.6667C24.9033 15.3733 22.9529 13.6 20.6279 13.3733C19.7657 13.2783 18.8939 13.3837 18.0763 13.6818C17.2587 13.9799 16.5162 14.4631 15.903 15.096C15.2899 15.7289 14.8218 16.4955 14.533 17.3394C14.2443 18.1834 14.1421 19.0833 14.2342 19.9733C14.4667 22.36 16.1717 24.3867 18.3933 25.0933C20.2404 25.68 21.8033 25.1867 23.1079 24.4133L26.3371 27.7467C26.8408 28.2667 27.6417 28.2667 28.1454 27.7467C28.2651 27.6246 28.3601 27.4793 28.4249 27.3191C28.4898 27.1589 28.5232 26.987 28.5232 26.8133C28.5232 26.6397 28.4898 26.4678 28.4249 26.3076C28.3601 26.1474 28.2651 26.002 28.1454 25.88L24.9292 22.5333ZM20.0208 22.6667C18.2125 22.6667 16.7917 21.2 16.7917 19.3333C16.7917 17.4667 18.2125 16 20.0208 16C21.8292 16 23.25 17.4667 23.25 19.3333C23.25 21.2 21.8292 22.6667 20.0208 22.6667ZM15.5 26.6667V29.3333C8.37 29.3333 2.58334 23.36 2.58334 16C2.58334 8.64 8.37 2.66666 15.5 2.66666C21.7517 2.66666 26.9571 7.25333 28.1583 13.3333H25.4846C25.0817 11.7224 24.3194 10.2312 23.2586 8.97868C22.1977 7.72619 20.8678 6.74722 19.375 6.12V6.66666C19.375 8.13333 18.2125 9.33333 16.7917 9.33333H14.2083V12C14.2083 12.7333 13.6271 13.3333 12.9167 13.3333H10.3333V16H12.9167V20H11.625L5.43792 13.6133C5.27 14.3867 5.16667 15.1733 5.16667 16C5.16667 21.88 9.80375 26.6667 15.5 26.6667Z" fill="black"/>
</svg>
