<svg width="211" height="211" viewBox="0 0 211 211" fill="none" xmlns="http://www.w3.org/2000/svg">
<path d="M24.0739 112.025H138.32C141.967 112.025 144.914 109.071 144.914 105.431C144.914 101.791 141.967 98.837 138.32 98.837H24.486L48.3389 74.9841C50.9137 72.4093 50.9137 68.2354 48.3389 65.6606C45.764 63.0857 41.5902 63.0857 39.0153 65.6606L0.0693359 105.635L39.0153 145.61C40.3044 146.899 41.9891 147.542 43.6771 147.542C45.3651 147.542 47.0498 146.899 48.3389 145.61C50.9137 143.035 50.9137 138.861 48.3389 136.286L24.0739 112.025ZM197.743 0H85.6494C78.3633 0 72.4619 5.9047 72.4619 13.1875V72.5312H85.7351V21.2286C85.7351 16.824 89.3089 13.2501 93.7136 13.2501H189.471C193.879 13.2501 197.45 16.824 197.45 21.2286L197.657 189.841C197.657 194.245 194.087 197.819 189.679 197.819H93.7171C89.3124 197.819 85.7386 194.245 85.7386 189.841V138.251L72.4654 138.268V197.812C72.4654 205.095 78.3668 211 85.6529 211H197.743C205.029 211 210.934 205.095 210.934 197.812V13.1875C210.931 5.9047 205.026 0 197.744 0H197.743Z" fill="black"/>
</svg>
