<svg width="223" height="223" viewBox="0 0 223 223" fill="none" xmlns="http://www.w3.org/2000/svg">
<path d="M125 131.439C125 138.341 119.286 144 112 144C104.714 144 99 138.341 99 131.439C99 124.538 104.714 118.879 112 118.879C119.286 118.879 125 124.538 125 131.439ZM117.958 106.318H105.907C104.12 106.318 102.65 104.961 102.568 103.237L100.017 49.3766C99.93 47.5371 101.45 46 103.356 46H120.636C122.545 46 124.066 47.542 123.974 49.384L121.296 103.244C121.21 104.965 119.741 106.318 117.958 106.318Z" fill="#F20707"/>
<path d="M220.487 140.665L197.269 119.849V92.2745C197.243 73.2186 189.336 54.8483 175.078 40.716C160.819 26.5836 141.223 17.6931 120.077 15.7636V0H102.923V15.7636C81.7773 17.6931 62.1806 26.5836 47.9224 40.716C33.6642 54.8483 25.7574 73.2186 25.7308 92.2745V119.849L2.51304 140.665C0.904442 142.106 0.000485775 144.062 0 146.101V169.17C0 171.209 0.903637 173.165 2.51212 174.607C4.12061 176.049 6.30218 176.859 8.57692 176.859H68.6154V182.834C68.4288 192.589 72.2641 202.063 79.3861 209.44C86.5082 216.817 96.4162 221.579 107.212 222.812C113.174 223.342 119.194 222.748 124.885 221.067C130.576 219.385 135.811 216.655 140.254 213.051C144.698 209.447 148.25 205.049 150.684 200.141C153.117 195.232 154.378 189.921 154.385 184.549V176.859H214.423C216.698 176.859 218.879 176.049 220.488 174.607C222.096 173.165 223 171.209 223 169.17V146.101C223 144.062 222.096 142.106 220.487 140.665ZM137.231 184.549C137.231 190.667 134.52 196.535 129.694 200.861C124.869 205.187 118.324 207.618 111.5 207.618C104.676 207.618 98.1311 205.187 93.3056 200.861C88.4801 196.535 85.7692 190.667 85.7692 184.549V176.859H137.231V184.549ZM205.846 161.48H17.1538V149.285L40.3716 128.469C41.9802 127.027 42.8841 125.072 42.8846 123.033V92.2745C42.8846 75.9593 50.1137 60.3124 62.9816 48.7759C75.8495 37.2393 93.3021 30.7582 111.5 30.7582C129.698 30.7582 147.151 37.2393 160.018 48.7759C172.886 60.3124 180.115 75.9593 180.115 92.2745V123.033C180.116 125.072 181.02 127.027 182.628 128.469L205.846 149.285V161.48Z" fill="black"/>
</svg>
