<svg width="298" height="284" viewBox="0 0 298 284" fill="none" xmlns="http://www.w3.org/2000/svg">
<path d="M94.1678 167.059C115.842 167.059 135.46 157.704 149.664 142.585C163.852 127.483 172.641 106.6 172.641 83.5294C172.641 60.4586 163.852 39.5762 149.664 24.4741C135.46 9.3553 115.842 0 94.1678 0C72.4935 0 52.8752 9.3553 38.6716 24.4741C24.4836 39.5762 15.6946 60.4586 15.6946 83.5294C15.6946 106.6 24.4836 127.483 38.6716 142.585C45.9509 150.355 54.6011 156.517 64.1251 160.717C73.649 164.917 83.8588 167.072 94.1678 167.059ZM94.1678 284C149.381 284 188.336 267.294 188.336 250.588C188.336 217.176 151.39 183.765 94.1678 183.765C35.3129 183.765 0 217.176 0 250.588C0 267.294 35.3129 284 94.1678 284Z" fill="black"/>
<path d="M185.781 217.044C184.679 217.044 183.622 216.594 182.842 215.794C182.063 214.993 181.625 213.908 181.625 212.776C181.625 211.644 182.063 210.558 182.842 209.758C183.622 208.957 184.679 208.508 185.781 208.508H194.094V199.971C194.092 192.724 196.087 185.624 199.848 179.491C203.609 173.358 208.983 168.444 215.349 165.314C217.759 164.128 219.031 162.096 219.031 160.278V154.302C219.031 152.484 217.751 150.453 215.349 149.266C208.983 146.137 203.609 141.222 199.848 135.089C196.087 128.957 194.092 121.856 194.094 114.609V106.073H185.781C184.679 106.073 183.622 105.623 182.842 104.822C182.063 104.022 181.625 102.936 181.625 101.804C181.625 100.672 182.063 99.5868 182.842 98.7864C183.622 97.9859 184.679 97.5363 185.781 97.5363H277.219C278.321 97.5363 279.378 97.9859 280.158 98.7864C280.937 99.5868 281.375 100.672 281.375 101.804C281.375 102.936 280.937 104.022 280.158 104.822C279.378 105.623 278.321 106.073 277.219 106.073H268.906V114.609C268.908 121.856 266.913 128.957 263.152 135.089C259.391 141.222 254.017 146.137 247.651 149.266C245.241 150.453 243.969 152.484 243.969 154.302V160.278C243.969 162.096 245.249 164.128 247.651 165.314C254.017 168.444 259.391 173.358 263.152 179.491C266.913 185.624 268.908 192.724 268.906 199.971V208.508H277.219C278.321 208.508 279.378 208.957 280.158 209.758C280.937 210.558 281.375 211.644 281.375 212.776C281.375 213.908 280.937 214.993 280.158 215.794C279.378 216.594 278.321 217.044 277.219 217.044H185.781ZM202.406 106.073V114.609C202.406 119.193 203.404 123.529 205.208 127.413H257.792C259.588 123.529 260.594 119.193 260.594 114.609V106.073H202.406ZM227.344 160.278C227.344 166.262 223.37 170.829 218.94 173.014C213.988 175.448 209.808 179.271 206.882 184.041C203.956 188.811 202.405 194.334 202.406 199.971C202.406 199.971 209.605 188.883 227.344 187.338V160.278ZM235.656 160.278V187.338C253.395 188.883 260.594 199.971 260.594 199.971C260.595 194.334 259.044 188.811 256.118 184.041C253.192 179.271 249.012 175.448 244.06 173.014C239.63 170.829 235.656 166.27 235.656 160.286V160.278Z" fill="black"/>
</svg>
