<svg width="280" height="284" viewBox="0 0 280 284" fill="none" xmlns="http://www.w3.org/2000/svg">
<path d="M94.1678 167.059C115.842 167.059 135.46 157.704 149.664 142.585C163.852 127.483 172.641 106.6 172.641 83.5294C172.641 60.4586 163.852 39.5762 149.664 24.4741C135.46 9.3553 115.842 0 94.1678 0C72.4935 0 52.8752 9.3553 38.6716 24.4741C24.4836 39.5762 15.6946 60.4586 15.6946 83.5294C15.6946 106.6 24.4836 127.483 38.6716 142.585C45.9509 150.355 54.6011 156.517 64.1251 160.717C73.649 164.917 83.8588 167.072 94.1678 167.059ZM94.1678 284C149.381 284 188.336 267.294 188.336 250.588C188.336 217.176 151.39 183.765 94.1678 183.765C35.3129 183.765 0 217.176 0 250.588C0 267.294 35.3129 284 94.1678 284Z" fill="black"/>
<path d="M202.758 201.89C202 201.89 201.272 201.537 200.736 200.91C200.199 200.283 199.898 199.432 199.898 198.545C199.898 197.657 200.199 196.806 200.736 196.179C201.272 195.552 202 195.199 202.758 195.199H208.48V188.509C208.479 182.828 209.852 177.264 212.441 172.457C215.03 167.65 218.729 163.798 223.11 161.346C224.769 160.416 225.645 158.823 225.645 157.398V152.715C225.645 151.29 224.764 149.698 223.11 148.768C218.729 146.315 215.03 142.463 212.441 137.656C209.852 132.85 208.479 127.285 208.48 121.604V114.914H202.758C202 114.914 201.272 114.561 200.736 113.934C200.199 113.307 199.898 112.456 199.898 111.569C199.898 110.681 200.199 109.83 200.736 109.203C201.272 108.576 202 108.223 202.758 108.223H265.696C266.455 108.223 267.182 108.576 267.719 109.203C268.255 109.83 268.557 110.681 268.557 111.569C268.557 112.456 268.255 113.307 267.719 113.934C267.182 114.561 266.455 114.914 265.696 114.914H259.974V121.604C259.976 127.285 258.602 132.85 256.014 137.656C253.425 142.463 249.726 146.315 245.344 148.768C243.685 149.698 242.81 151.29 242.81 152.715V157.398C242.81 158.823 243.691 160.416 245.344 161.346C249.726 163.798 253.425 167.65 256.014 172.457C258.602 177.264 259.976 182.828 259.974 188.509V195.199H265.696C266.455 195.199 267.182 195.552 267.719 196.179C268.255 196.806 268.557 197.657 268.557 198.545C268.557 199.432 268.255 200.283 267.719 200.91C267.182 201.537 266.455 201.89 265.696 201.89H202.758ZM214.202 114.914V121.604C214.202 125.197 214.888 128.596 216.13 131.64H252.325C253.56 128.596 254.253 125.197 254.253 121.604V114.914H214.202ZM231.366 157.398C231.366 162.088 228.632 165.668 225.582 167.38C222.174 169.288 219.296 172.284 217.282 176.023C215.269 179.762 214.201 184.09 214.202 188.509C214.202 188.509 219.157 179.818 231.366 178.607V157.398ZM237.088 157.398V178.607C249.298 179.818 254.253 188.509 254.253 188.509C254.254 184.09 253.186 179.762 251.172 176.023C249.158 172.284 246.281 169.288 242.873 167.38C239.823 165.668 237.088 162.095 237.088 157.405V157.398Z" fill="black"/>
</svg>
