<svg width="33" height="33" viewBox="0 0 33 33" fill="none" xmlns="http://www.w3.org/2000/svg">
<path d="M31.6914 26.2306L26.1486 20.6877L21.8851 18.9263C23.3047 16.9076 24.0652 14.4992 24.0625 12.0312C24.0625 5.39718 18.6653 0 12.0312 0C5.39718 0 0 5.39718 0 12.0312C0 18.6653 5.39718 24.0625 12.0312 24.0625C14.5206 24.0653 16.9489 23.2917 18.9779 21.8492L20.7347 26.1012L26.2773 31.6443C26.6328 31.9998 27.0548 32.2818 27.5193 32.4742C27.9837 32.6666 28.4815 32.7656 28.9843 32.7656C29.487 32.7657 29.9848 32.6667 30.4493 32.4743C30.9137 32.2819 31.3357 31.9999 31.6912 31.6445C32.0467 31.289 32.3287 30.867 32.5211 30.4025C32.7135 29.9381 32.8126 29.4403 32.8126 28.9376C32.8126 28.4348 32.7136 27.937 32.5212 27.4726C32.3288 27.0081 32.0469 26.5861 31.6914 26.2306ZM2.1875 12.0312C2.1875 6.60352 6.60352 2.1875 12.0312 2.1875C17.459 2.1875 21.875 6.60352 21.875 12.0312C21.875 17.459 17.459 21.875 12.0312 21.875C6.60352 21.875 2.1875 17.459 2.1875 12.0312ZM30.1445 30.0975C29.8366 30.4048 29.4194 30.5773 28.9844 30.5773C28.5494 30.5773 28.1322 30.4048 27.8242 30.0975L22.5898 24.8631L20.9565 20.9096L24.9102 22.5429L30.1446 27.7774C30.4518 28.0853 30.6243 28.5025 30.6243 28.9375C30.6243 29.3724 30.4517 29.7896 30.1445 30.0975Z" fill="black"/>
</svg>
